<?xml version="1.0" standalone="no"?>
<!DOCTYPE svg PUBLIC "-//W3C//DTD SVG 20010904//EN"
 "http://www.w3.org/TR/2001/REC-SVG-20010904/DTD/svg10.dtd">
<svg version="1.0" xmlns="http://www.w3.org/2000/svg"
 width="512.000000pt" height="512.000000pt" viewBox="0 0 512.000000 512.000000"
 preserveAspectRatio="xMidYMid meet">
<metadata>
Created by potrace 1.14, written by Peter Selinger 2001-2017
</metadata>
<g transform="translate(0.000000,512.000000) scale(0.100000,-0.100000)"
fill="#000000" stroke="none">
<path d="M2285 5108 c-182 -18 -434 -78 -615 -145 -537 -200 -995 -578 -1297
-1071 -498 -810 -498 -1854 0 -2664 302 -493 760 -871 1297 -1071 436 -162
949 -202 1408 -108 917 189 1664 873 1936 1773 74 246 105 461 106 733 0 400
-78 749 -250 1110 -380 802 -1173 1359 -2054 1444 -128 13 -402 12 -531 -1z
m575 -1093 c522 -115 936 -481 1103 -975 62 -181 72 -250 72 -480 0 -230 -10
-299 -72 -480 -126 -373 -394 -676 -758 -858 -75 -37 -247 -96 -345 -117 -102
-22 -376 -31 -493 -16 -329 43 -612 184 -853 425 -291 292 -434 635 -434 1046
0 244 52 465 156 672 131 259 393 521 652 652 124 63 297 119 437 142 111 18
434 12 535 -11z"/>
<path d="M2437 3753 c-4 -3 -7 -219 -7 -478 l0 -472 -40 -32 c-82 -66 -118
-179 -91 -287 l12 -48 -313 -313 -313 -313 45 -45 45 -45 311 311 311 310 37
-22 c46 -27 156 -37 211 -19 l37 12 204 -203 204 -204 87 88 88 87 -218 218
-217 217 0 55 c0 73 -34 144 -94 197 l-46 41 0 476 0 476 -123 0 c-68 0 -127
-3 -130 -7z"/>
</g>
</svg>
